<svg width="21" height="20" viewBox="0 0 21 20" fill="none" xmlns="http://www.w3.org/2000/svg">
<path d="M14.3812 0H6.88123C3.42998 0 0.631226 2.79875 0.631226 6.25V13.75C0.631226 17.2013 3.42998 20 6.88123 20H14.3812C17.8325 20 20.6312 17.2013 20.6312 13.75V6.25C20.6312 2.79875 17.8325 0 14.3812 0ZM18.7562 13.75C18.7562 16.1625 16.7937 18.125 14.3812 18.125H6.88123C4.46873 18.125 2.50623 16.1625 2.50623 13.75V6.25C2.50623 3.8375 4.46873 1.875 6.88123 1.875H14.3812C16.7937 1.875 18.7562 3.8375 18.7562 6.25V13.75Z" fill="white"/>
<path d="M10.6312 4.93506C7.83411 4.93506 5.56628 7.20288 5.56628 9.99999C5.56628 12.7971 7.83411 15.0649 10.6312 15.0649C13.4283 15.0649 15.6962 12.7971 15.6962 9.99999C15.6962 7.20288 13.4283 4.93506 10.6312 4.93506ZM10.6312 13.1656C8.88635 13.1656 7.46563 11.7449 7.46563 9.99999C7.46563 8.25386 8.88635 6.83441 10.6312 6.83441C12.3761 6.83441 13.7968 8.25386 13.7968 9.99999C13.7968 11.7449 12.3761 13.1656 10.6312 13.1656Z" fill="white"/>
<path d="M15.9559 5.45444C16.3862 5.45444 16.7351 5.10557 16.7351 4.67522C16.7351 4.24487 16.3862 3.896 15.9559 3.896C15.5255 3.896 15.1767 4.24487 15.1767 4.67522C15.1767 5.10557 15.5255 5.45444 15.9559 5.45444Z" fill="white"/>
</svg>
