<svg width="17" height="18" viewBox="0 0 17 18" fill="none" xmlns="http://www.w3.org/2000/svg">
<path d="M14.8969 12.5281C13.8095 11.5981 12.7059 11.0347 11.6319 11.9633L10.9906 12.5246C10.5214 12.932 9.64893 14.8356 6.27582 10.9553C2.90341 7.07999 4.91028 6.47659 5.38021 6.07269L6.02505 5.51074C7.09346 4.58 6.69026 3.40834 5.91968 2.20225L5.45467 1.47171C4.68058 0.268434 3.83765 -0.52181 2.76643 0.407517L2.18762 0.913273C1.71418 1.25817 0.390784 2.37926 0.069769 4.50906C-0.316572 7.06453 0.902159 9.99089 3.69435 13.2017C6.48304 16.414 9.21342 18.0275 11.7998 17.9994C13.9493 17.9762 15.2474 16.8228 15.6534 16.4035L16.2343 15.897C17.3027 14.9684 16.6389 14.0229 15.5508 13.0908L14.8969 12.5281Z" fill="white"/>
</svg>
