<svg width="77" height="68" viewBox="0 0 77 68" fill="none" xmlns="http://www.w3.org/2000/svg">
<path fill-rule="evenodd" clip-rule="evenodd" d="M66.8022 57.8143H43.0098V36.0237C43.0098 29.4495 44.6706 23.9326 48.0615 19.5477L48.0666 19.5412C51.5073 15.1674 56.4645 12.0899 62.8557 10.2639L63.7792 10L66.9782 19.7001L66.0424 20.0202C63.9707 20.7289 62.2865 21.4813 60.973 22.2694L60.9602 22.2771L60.9471 22.2844C59.6492 23.0112 58.6438 23.8493 57.9035 24.7869L57.8953 24.7973L57.8869 24.8075C57.1537 25.6873 56.6349 26.7184 56.3354 27.9167C56.0877 28.9075 55.9346 30.0499 55.8834 31.3499H66.8022V57.8143ZM54.8643 32.3499C54.8643 32.0084 54.8704 31.6751 54.8827 31.3499C54.9344 29.9792 55.0953 28.7539 55.3652 27.6741C55.6992 26.3382 56.2837 25.1693 57.1187 24.1673C57.9536 23.1097 59.0669 22.1912 60.4585 21.4119C61.8501 20.577 63.6035 19.7977 65.7188 19.074L63.1304 11.2254C56.896 13.0067 52.1367 15.9847 48.8525 20.1595C45.624 24.3343 44.0098 29.6224 44.0098 36.0237V56.8143H65.8022V32.3499H54.8643ZM34.3223 57.8143H10.5298V36.0237C10.5298 29.4495 12.1906 23.9326 15.5815 19.5477L15.5866 19.5412C19.0273 15.1674 23.9845 12.0899 30.3757 10.2639L31.2992 10L34.4982 19.7001L33.5625 20.0202C31.4908 20.7289 29.8065 21.4813 28.493 22.2694L28.4802 22.2771L28.4671 22.2844C27.1693 23.0112 26.1638 23.8493 25.4236 24.7869L25.4154 24.7973L25.4069 24.8075C24.6737 25.6873 24.155 26.7184 23.8554 27.9167C23.6077 28.9075 23.4546 30.0499 23.4034 31.3499H34.3223V57.8143ZM22.3843 32.3499C22.3843 32.0084 22.3904 31.6751 22.4027 31.3499C22.4545 29.9792 22.6153 28.7539 22.8853 27.6741C23.2192 26.3382 23.8037 25.1693 24.6387 24.1673C25.4736 23.1097 26.5869 22.1912 27.9785 21.4119C29.3701 20.577 31.1235 19.7977 33.2388 19.074L30.6504 11.2254C24.416 13.0067 19.6567 15.9847 16.3726 20.1595C13.144 24.3343 11.5298 29.6224 11.5298 36.0237V56.8143H33.3223V32.3499H22.3843Z" fill="black"/>
</svg>
