<svg width="21" height="20" viewBox="0 0 21 20" fill="none" xmlns="http://www.w3.org/2000/svg">
<path d="M10.5038 0H10.4988C4.98509 0 0.501343 4.485 0.501343 10C0.501343 12.1875 1.20634 14.215 2.40509 15.8612L1.15884 19.5763L5.00259 18.3475C6.58384 19.395 8.47009 20 10.5038 20C16.0176 20 20.5013 15.5138 20.5013 10C20.5013 4.48625 16.0176 0 10.5038 0Z" fill="white"/>
<path d="M16.1366 14.1221C15.8985 14.7962 14.9535 15.3552 14.1997 15.5185C13.684 15.6285 13.0104 15.7164 10.7429 14.7739C7.84253 13.5692 5.97474 10.6145 5.82916 10.4228C5.68976 10.2311 4.65717 8.85821 4.65717 7.43834C4.65717 6.01848 5.3764 5.3271 5.66632 5.03026C5.90442 4.78661 6.29796 4.67529 6.67547 4.67529C6.7976 4.67529 6.9074 4.68148 7.00609 4.68642C7.29601 4.69879 7.44158 4.71611 7.6328 5.17497C7.8709 5.75009 8.45073 7.16995 8.51982 7.3159C8.59014 7.46184 8.66046 7.65973 8.56176 7.85144C8.46924 8.04933 8.38781 8.13714 8.24224 8.30535C8.09667 8.47356 7.95849 8.60218 7.81292 8.78276C7.67968 8.93984 7.52917 9.10804 7.69695 9.39869C7.86473 9.68316 8.44456 10.6318 9.29827 11.3937C10.3999 12.3769 11.2931 12.6911 11.6127 12.8247C11.8508 12.9236 12.1345 12.9001 12.3084 12.7146C12.5293 12.4759 12.8019 12.0801 13.0795 11.6905C13.2769 11.411 13.5261 11.3764 13.7876 11.4753C14.0541 11.5681 15.4642 12.2669 15.7541 12.4116C16.044 12.5575 16.2353 12.6268 16.3056 12.7492C16.3747 12.8717 16.3747 13.4468 16.1366 14.1221Z" fill="black"/>
</svg>
