<svg width="26" height="18" viewBox="0 0 26 18" fill="none" xmlns="http://www.w3.org/2000/svg">
<path d="M24.5576 1.98956C23.8723 0.770642 23.1287 0.546438 21.6145 0.461177C20.1019 0.358548 16.2983 0.315918 13.0032 0.315918C9.70167 0.315918 5.89651 0.358548 4.3855 0.459598C2.87449 0.546438 2.12925 0.769063 1.43769 1.98956C0.731922 3.20689 0.368774 5.30367 0.368774 8.99515C0.368774 8.99831 0.368774 8.99988 0.368774 8.99988C0.368774 9.00304 0.368774 9.00462 0.368774 9.00462V9.00778C0.368774 12.6835 0.731922 14.796 1.43769 16.0007C2.12925 17.2197 2.87291 17.4407 4.38393 17.5433C5.89651 17.6317 9.70167 17.6839 13.0032 17.6839C16.2983 17.6839 20.1019 17.6317 21.6161 17.5449C23.1302 17.4423 23.8739 17.2212 24.5592 16.0023C25.2712 14.7976 25.6312 12.685 25.6312 9.00936C25.6312 9.00936 25.6312 9.00462 25.6312 9.00146C25.6312 9.00146 25.6312 8.99831 25.6312 8.99673C25.6312 5.30367 25.2712 3.20689 24.5576 1.98956Z" fill="white"/>
<path d="M9.84219 13.7366V4.26318L17.7367 8.99989L9.84219 13.7366Z" fill="black"/>
</svg>
